# xmcd
#
# Track frame offsets: 
#        150
#        13876
#        28162
#        41975
#        54066
#        66213
#        78300
#        92788
#        107190
#        119450
#        131405
#        143304
#        155564
#        169496
#        183119
#        199871
#        211567
#        225045
#        239364
#        254127
#        268477
#        283049
#        295613
#        309125
#        323536
#
# Disc length: 4474 seconds
#
# Revision: 2
# Processed by: cddbd v1.5.2PL0 Copyright (c) Steve Scherf et al.
# Submitted via: ExactAudioCopyFreeDBPlugin 1.0
#
DISCID=5e117819
DTITLE=Various Artist - The Knoxville Sessions - CD 2
DYEAR=2016
DGENRE=Old Time Country Music
TTITLE0=Ballard Cross - The Wabash Cannon Ball
TTITLE1=Ballard Cross - Lorrainna
TTITLE2=Cal Davenport and His Gang - Double Eagle March
TTITLE3=Cal Davenport and His Gang - Broken Hearted Lover
TTITLE4=Cal Davenport and His Gang - Little Rosewood Casket
TTITLE5=Cal Davenport and His Gang - Blue Ridge Mountain Blues
TTITLE6=Ballard Cross - Down Where the Swanee River Flows
TTITLE7=Ballard Cross - Won't You Waltz Home with Me
TTITLE8=Senior Chapel Quartette - In My Saviour's Care
TTITLE9=Senior Chapel Quartette - The Great Judgment
TTITLE10=Senior Chapel Quartette - Lonesome Road
TTITLE11=Senior Chapel Quartette - Way Down Home
TTITLE12=Maynard Baird and His Southern Serenaders - Sorry
TTITLE13=Maynard Baird and His Southern Serenaders - Just for You
TTITLE14=Colonel J.G. Sterchi - To My Friends and Patrons
TTITLE15=Cal West - Cal West's Yodel Blues Pt. 1
TTITLE16=Cal West - Cal West's Yodel Blues Pt. 2
TTITLE17=Smoky Mountain Ramblers - San Antonio
TTITLE18=Smoky Mountain Ramblers - Back to Old Smoky Mountain
TTITLE19=Smoky Mountain Ramblers - Ain't It Hell, Boys
TTITLE20=Smoky Mountain Ramblers - Down in Tennesse
TTITLE21=Perry County Music Makers - I'm Sad and Blue
TTITLE22=Perry County Music Makers - Maudaline
TTITLE23=Perry County Music Makers - Got a Buddy I Must See
TTITLE24=Perry County Music Makers - By the Cottage Door
EXTD=
EXTT0=
EXTT1=
EXTT2=
EXTT3=
EXTT4=
EXTT5=
EXTT6=
EXTT7=
EXTT8=
EXTT9=
EXTT10=
EXTT11=
EXTT12=
EXTT13=
EXTT14=
EXTT15=
EXTT16=
EXTT17=
EXTT18=
EXTT19=
EXTT20=
EXTT21=
EXTT22=
EXTT23=
EXTT24=
PLAYORDER=
